<svg width="1134" height="1024" viewBox="0 0 1134 1024" fill="none" xmlns="http://www.w3.org/2000/svg">
<path opacity="0.6" fill-rule="evenodd" clip-rule="evenodd" d="M557 1069C864.623 1069 1114 819.623 1114 512C1114 204.377 864.623 -45 557 -45C249.377 -45 0 204.377 0 512C0 819.623 249.377 1069 557 1069Z" fill="#3F21D0"/>
<path fill-rule="evenodd" clip-rule="evenodd" d="M556.606 857.351C747.555 857.351 902.35 702.556 902.35 511.607C902.35 320.657 747.555 165.863 556.606 165.863C365.657 165.863 210.862 320.657 210.862 511.607C210.862 702.556 365.657 857.351 556.606 857.351Z" fill="url(#paint0_linear)"/>
<path fill-rule="evenodd" clip-rule="evenodd" d="M159.172 930.661C173.439 930.661 185.005 919.095 185.005 904.828C185.005 890.561 173.439 878.995 159.172 878.995C144.905 878.995 133.339 890.561 133.339 904.828C133.339 919.095 144.905 930.661 159.172 930.661Z" stroke="white" stroke-width="2"/>
<path fill-rule="evenodd" clip-rule="evenodd" d="M750.378 139.561C754.035 139.561 757 136.596 757 132.939C757 129.282 754.035 126.317 750.378 126.317C746.721 126.317 743.757 129.282 743.757 132.939C743.757 136.596 746.721 139.561 750.378 139.561Z" stroke="white" stroke-width="2"/>
<path fill-rule="evenodd" clip-rule="evenodd" d="M656.378 786.56C660.035 786.56 663 783.596 663 779.939C663 776.282 660.035 773.317 656.378 773.317C652.721 773.317 649.757 776.282 649.757 779.939C649.757 783.596 652.721 786.56 656.378 786.56Z" stroke="white" stroke-width="2"/>
<path fill-rule="evenodd" clip-rule="evenodd" d="M1123.17 914C1128.24 914 1132.34 909.893 1132.34 904.828C1132.34 899.762 1128.24 895.656 1123.17 895.656C1118.11 895.656 1114 899.762 1114 904.828C1114 909.893 1118.11 914 1123.17 914Z" stroke="white" stroke-width="2"/>
<path fill-rule="evenodd" clip-rule="evenodd" d="M766.172 898.995C771.238 898.995 775.344 894.888 775.344 889.823C775.344 884.757 771.238 880.651 766.172 880.651C761.106 880.651 757 884.757 757 889.823C757 894.888 761.106 898.995 766.172 898.995Z" stroke="white" stroke-width="2"/>
<path fill-rule="evenodd" clip-rule="evenodd" d="M1067.17 163.844C1072.24 163.844 1076.34 159.738 1076.34 154.672C1076.34 149.606 1072.24 145.5 1067.17 145.5C1062.11 145.5 1058 149.606 1058 154.672C1058 159.738 1062.11 163.844 1067.17 163.844Z" stroke="white" stroke-width="2"/>
<path fill-rule="evenodd" clip-rule="evenodd" d="M159.172 430.172C164.238 430.172 168.344 426.066 168.344 421C168.344 415.934 164.238 411.828 159.172 411.828C154.106 411.828 150 415.934 150 421C150 426.066 154.106 430.172 159.172 430.172Z" stroke="white" stroke-width="2"/>
<path fill-rule="evenodd" clip-rule="evenodd" d="M150 145.5C158.247 145.5 164.932 138.815 164.932 130.568C164.932 122.321 158.247 115.635 150 115.635C141.753 115.635 135.068 122.321 135.068 130.568C135.068 138.815 141.753 145.5 150 145.5Z" stroke="white" stroke-width="2"/>
<defs>
<linearGradient id="paint0_linear" x1="1420.97" y1="857.351" x2="586.891" y2="-181.933" gradientUnits="userSpaceOnUse">
<stop stop-color="#DF387C"/>
<stop offset="1" stop-color="#FF602C"/>
</linearGradient>
</defs>
</svg>
