<svg width="51" height="51" viewBox="0 0 51 51" fill="none" xmlns="http://www.w3.org/2000/svg">
<g clip-path="url(#clip0)">
<path d="M16.9041 25.5C16.9041 24.691 17.5599 24.0352 18.3689 24.0352H32.2993C33.1083 24.0352 33.7641 24.691 33.7641 25.5C33.7641 26.309 33.1083 26.9648 32.2993 26.9648H18.3689C17.5599 26.9648 16.9041 26.309 16.9041 25.5Z" fill="white"/>
<path d="M45.9395 18.1758H44.377V17.1992C44.377 14.7761 42.4055 12.8047 39.9824 12.8047H10.6855C8.26245 12.8047 6.29102 14.7761 6.29102 17.1992V18.1758H4.72852C2.30542 18.1758 0.333984 20.1472 0.333984 22.5703V28.4297C0.333984 30.8528 2.30542 32.8242 4.72852 32.8242H6.29102V33.8008C6.29102 36.2239 8.26245 38.1953 10.6855 38.1953H16.7276C18.5686 38.1953 20.3436 37.6441 21.8607 36.6012C23.9382 35.1733 26.7302 35.1733 28.8076 36.6012C30.3248 37.6441 32.0993 38.1953 33.9403 38.1953H39.9824C42.4055 38.1953 44.377 36.2239 44.377 33.8008V32.8242H45.9395C48.3625 32.8242 50.334 30.8528 50.334 28.4297V22.5703C50.334 20.1472 48.3625 18.1758 45.9395 18.1758ZM4.72852 29.8945C3.92094 29.8945 3.26367 29.2373 3.26367 28.4297V22.5703C3.26367 21.7627 3.92094 21.1055 4.72852 21.1055H6.29102V29.8945H4.72852ZM41.4473 33.8008C41.4473 34.6084 40.79 35.2656 39.9824 35.2656H33.9403C32.6948 35.2656 31.4936 34.8925 30.467 34.1868C28.9499 33.1443 27.175 32.593 25.334 32.593C23.493 32.593 21.718 33.1443 20.2009 34.1868C19.1744 34.8925 17.9731 35.2656 16.7276 35.2656H10.6855C9.87798 35.2656 9.2207 34.6084 9.2207 33.8008V17.1992C9.2207 16.3916 9.87798 15.7344 10.6855 15.7344H39.9824C40.79 15.7344 41.4473 16.3916 41.4473 17.1992V33.8008ZM47.4043 28.4297C47.4043 29.2373 46.747 29.8945 45.9395 29.8945H44.377V21.1055H45.9395C46.747 21.1055 47.4043 21.7627 47.4043 22.5703V28.4297Z" fill="white"/>
</g>
<defs>
<clipPath id="clip0">
<rect x="0.333984" y="0.5" width="50" height="50" fill="white"/>
</clipPath>
</defs>
</svg>
