<svg width="98" height="107" viewBox="0 0 98 107" fill="none" xmlns="http://www.w3.org/2000/svg">
<path d="M51.4734 0.19751V73.298H0.389648V18.7109L18.9064 0.19751H51.4734Z" fill="white"/>
<path d="M18.9064 0.19751V18.7109H0.389648L18.9064 0.19751Z" fill="#2A199D"/>
<path d="M25.9313 42.0261C29.4783 42.0261 32.3508 39.152 32.3508 35.6067C32.3508 32.0614 29.4783 29.1873 25.9313 29.1873C22.3844 29.1873 19.5119 32.0614 19.5119 35.6067C19.5119 39.152 22.3844 42.0261 25.9313 42.0261Z" fill="#2A199D"/>
<path d="M34.4147 54.5806H17.4483L23.8812 35.0967H27.9819L34.4147 54.5806Z" fill="#2A199D"/>
<path d="M1.77565 84.8513H2.76965V95.2393H1.77565V84.8513ZM8.54541 95.3093C7.83608 95.3093 7.19675 95.1507 6.62741 94.8333C6.05808 94.5067 5.61008 94.0587 5.28341 93.4893C4.95675 92.92 4.79341 92.276 4.79341 91.5573C4.79341 90.8387 4.95675 90.1947 5.28341 89.6253C5.61008 89.056 6.05808 88.6127 6.62741 88.2953C7.19675 87.978 7.83608 87.8193 8.54541 87.8193C9.25475 87.8193 9.89408 87.978 10.4634 88.2953C11.0327 88.6127 11.4761 89.056 11.7934 89.6253C12.1201 90.1947 12.2834 90.8387 12.2834 91.5573C12.2834 92.276 12.1201 92.92 11.7934 93.4893C11.4761 94.0587 11.0327 94.5067 10.4634 94.8333C9.89408 95.1507 9.25475 95.3093 8.54541 95.3093ZM8.54541 94.4273C9.06808 94.4273 9.53475 94.3107 9.94541 94.0773C10.3654 93.8347 10.6921 93.494 10.9254 93.0553C11.1587 92.6167 11.2754 92.1173 11.2754 91.5573C11.2754 90.9973 11.1587 90.498 10.9254 90.0593C10.6921 89.6207 10.3654 89.2847 9.94541 89.0513C9.53475 88.8087 9.06808 88.6873 8.54541 88.6873C8.02275 88.6873 7.55141 88.8087 7.13141 89.0513C6.72075 89.2847 6.39408 89.6207 6.15141 90.0593C5.91808 90.498 5.80141 90.9973 5.80141 91.5573C5.80141 92.1173 5.91808 92.6167 6.15141 93.0553C6.39408 93.494 6.72075 93.8347 7.13141 94.0773C7.55141 94.3107 8.02275 94.4273 8.54541 94.4273ZM17.3648 95.3093C16.6368 95.3093 15.9834 95.1507 15.4048 94.8333C14.8354 94.516 14.3874 94.0727 14.0608 93.5033C13.7341 92.9247 13.5708 92.276 13.5708 91.5573C13.5708 90.8387 13.7341 90.1947 14.0608 89.6253C14.3874 89.056 14.8354 88.6127 15.4048 88.2953C15.9834 87.978 16.6368 87.8193 17.3648 87.8193C17.9994 87.8193 18.5641 87.9453 19.0588 88.1973C19.5628 88.44 19.9594 88.7993 20.2488 89.2753L19.5068 89.7793C19.2641 89.4153 18.9561 89.1447 18.5828 88.9673C18.2094 88.7807 17.8034 88.6873 17.3648 88.6873C16.8328 88.6873 16.3521 88.8087 15.9228 89.0513C15.5028 89.2847 15.1714 89.6207 14.9288 90.0593C14.6954 90.498 14.5788 90.9973 14.5788 91.5573C14.5788 92.1267 14.6954 92.6307 14.9288 93.0693C15.1714 93.4987 15.5028 93.8347 15.9228 94.0773C16.3521 94.3107 16.8328 94.4273 17.3648 94.4273C17.8034 94.4273 18.2094 94.3387 18.5828 94.1613C18.9561 93.984 19.2641 93.7133 19.5068 93.3493L20.2488 93.8533C19.9594 94.3293 19.5628 94.6933 19.0588 94.9453C18.5548 95.188 17.9901 95.3093 17.3648 95.3093ZM24.8221 91.5433L23.0861 93.1393V95.2393H22.0921V84.8513H23.0861V91.8933L27.4821 87.8753H28.7141L25.5641 90.8853L29.0081 95.2393H27.7901L24.8221 91.5433ZM30.735 95.3093C30.5296 95.3093 30.3523 95.2347 30.203 95.0853C30.063 94.936 29.993 94.754 29.993 94.5393C29.993 94.3247 30.063 94.1473 30.203 94.0073C30.3523 93.858 30.5296 93.7833 30.735 93.7833C30.9403 93.7833 31.1176 93.858 31.267 94.0073C31.4163 94.1473 31.491 94.3247 31.491 94.5393C31.491 94.754 31.4163 94.936 31.267 95.0853C31.1176 95.2347 30.9403 95.3093 30.735 95.3093ZM40.1187 84.8513V95.2393H39.1667V93.7833C38.868 94.278 38.4714 94.656 37.9767 94.9173C37.4914 95.1787 36.9407 95.3093 36.3247 95.3093C35.634 95.3093 35.0087 95.1507 34.4487 94.8333C33.8887 94.516 33.45 94.0727 33.1327 93.5033C32.8154 92.934 32.6567 92.2853 32.6567 91.5573C32.6567 90.8293 32.8154 90.1807 33.1327 89.6113C33.45 89.042 33.8887 88.6033 34.4487 88.2953C35.0087 87.978 35.634 87.8193 36.3247 87.8193C36.922 87.8193 37.4587 87.9453 37.9347 88.1973C38.42 88.44 38.8167 88.7993 39.1247 89.2753V84.8513H40.1187ZM36.4087 94.4273C36.922 94.4273 37.384 94.3107 37.7947 94.0773C38.2147 93.8347 38.5414 93.494 38.7747 93.0553C39.0174 92.6167 39.1387 92.1173 39.1387 91.5573C39.1387 90.9973 39.0174 90.498 38.7747 90.0593C38.5414 89.6207 38.2147 89.2847 37.7947 89.0513C37.384 88.8087 36.922 88.6873 36.4087 88.6873C35.886 88.6873 35.4147 88.8087 34.9947 89.0513C34.584 89.2847 34.2574 89.6207 34.0147 90.0593C33.7814 90.498 33.6647 90.9973 33.6647 91.5573C33.6647 92.1173 33.7814 92.6167 34.0147 93.0553C34.2574 93.494 34.584 93.8347 34.9947 94.0773C35.4147 94.3107 35.886 94.4273 36.4087 94.4273ZM45.463 87.8193C46.4243 87.8193 47.1616 88.062 47.675 88.5473C48.1883 89.0233 48.445 89.7327 48.445 90.6753V95.2393H47.493V94.0913C47.269 94.474 46.9376 94.7727 46.499 94.9873C46.0696 95.202 45.5563 95.3093 44.959 95.3093C44.1376 95.3093 43.4843 95.1133 42.999 94.7213C42.5136 94.3293 42.271 93.8113 42.271 93.1673C42.271 92.542 42.495 92.038 42.943 91.6553C43.4003 91.2727 44.1236 91.0813 45.113 91.0813H47.451V90.6333C47.451 89.9987 47.2736 89.518 46.919 89.1913C46.5643 88.8553 46.0463 88.6873 45.365 88.6873C44.8983 88.6873 44.4503 88.7667 44.021 88.9253C43.5916 89.0747 43.223 89.2847 42.915 89.5553L42.467 88.8133C42.8403 88.496 43.2883 88.2533 43.811 88.0853C44.3336 87.908 44.8843 87.8193 45.463 87.8193ZM45.113 94.5253C45.673 94.5253 46.1536 94.3993 46.555 94.1473C46.9563 93.886 47.255 93.5127 47.451 93.0273V91.8233H45.141C43.881 91.8233 43.251 92.262 43.251 93.1393C43.251 93.5687 43.4143 93.9093 43.741 94.1613C44.0676 94.404 44.525 94.5253 45.113 94.5253ZM55.0228 94.7913C54.8361 94.9593 54.6028 95.09 54.3228 95.1833C54.0521 95.2673 53.7675 95.3093 53.4688 95.3093C52.7781 95.3093 52.2461 95.1227 51.8728 94.7493C51.4995 94.376 51.3128 93.8487 51.3128 93.1673V88.7153H49.9968V87.8753H51.3128V86.2653H52.3068V87.8753H54.5468V88.7153H52.3068V93.1113C52.3068 93.55 52.4141 93.886 52.6288 94.1193C52.8528 94.3433 53.1701 94.4553 53.5808 94.4553C53.7861 94.4553 53.9821 94.4227 54.1688 94.3573C54.3648 94.292 54.5328 94.1987 54.6728 94.0773L55.0228 94.7913ZM59.4083 87.8193C60.3696 87.8193 61.107 88.062 61.6203 88.5473C62.1336 89.0233 62.3903 89.7327 62.3903 90.6753V95.2393H61.4383V94.0913C61.2143 94.474 60.883 94.7727 60.4443 94.9873C60.015 95.202 59.5016 95.3093 58.9043 95.3093C58.083 95.3093 57.4296 95.1133 56.9443 94.7213C56.459 94.3293 56.2163 93.8113 56.2163 93.1673C56.2163 92.542 56.4403 92.038 56.8883 91.6553C57.3456 91.2727 58.069 91.0813 59.0583 91.0813H61.3963V90.6333C61.3963 89.9987 61.219 89.518 60.8643 89.1913C60.5096 88.8553 59.9916 88.6873 59.3103 88.6873C58.8436 88.6873 58.3956 88.7667 57.9663 88.9253C57.537 89.0747 57.1683 89.2847 56.8603 89.5553L56.4123 88.8133C56.7856 88.496 57.2336 88.2533 57.7563 88.0853C58.279 87.908 58.8296 87.8193 59.4083 87.8193ZM59.0583 94.5253C59.6183 94.5253 60.099 94.3993 60.5003 94.1473C60.9016 93.886 61.2003 93.5127 61.3963 93.0273V91.8233H59.0863C57.8263 91.8233 57.1963 92.262 57.1963 93.1393C57.1963 93.5687 57.3596 93.9093 57.6863 94.1613C58.013 94.404 58.4703 94.5253 59.0583 94.5253Z" fill="white"/>
</svg>
